<svg xmlns="http://www.w3.org/2000/svg" version="1.1" xmlns:xlink="http://www.w3.org/1999/xlink" xmlns:svgjs="http://svgjs.dev/svgjs" width="1000" height="1000" viewBox="0 0 1000 1000"><rect width="1000" height="1000" fill="#000000"></rect><g transform="matrix(0.7,0,0,0.7,150.61875888556796,146.08680161943317)"><svg viewBox="0 0 244 247" data-background-color="#4d7e3e" preserveAspectRatio="xMidYMid meet" height="1012" width="1000" xmlns="http://www.w3.org/2000/svg" xmlns:xlink="http://www.w3.org/1999/xlink"><g id="tight-bounds" transform="matrix(1,0,0,1,-0.2156816686836862,-0.09999999999999432)"><svg viewBox="0 0 244.43135999999998 247.2" height="247.2" width="244.43135999999998"><g><svg></svg></g><g><svg viewBox="0 0 244.43135999999998 247.2" height="247.2" width="244.43135999999998"><g transform="matrix(1,0,0,1,0,93.72802123540168)"><svg viewBox="0 0 244.43135999999998 59.743957529196614" height="59.743957529196614" width="244.43135999999998"><g><svg viewBox="0 0 244.43135999999998 59.743957529196614" height="59.743957529196614" width="244.43135999999998"><g transform="matrix(1,0,0,1,0,35.935210797498854)"><svg viewBox="0 0 244.43135999999998 23.80874673169776" height="23.80874673169776" width="244.43135999999998"><g><svg viewBox="0 0 244.43135999999998 23.80874673169776" height="23.80874673169776" width="244.43135999999998"><g><svg viewBox="0 0 244.43135999999998 12.84130031978072" height="12.84130031978072" width="244.43135999999998"><g transform="matrix(1,0,0,1,0,0)"><svg width="244.43135999999998" viewBox="4.199999809265137 -33.08000183105469 641.25 33.69000244140625" height="12.84130031978072" data-palette-color="#ffffff"><path d="M20.36 0.2L14.7-12.62Q13.96-12.57 13.13-12.57 12.3-12.57 10.67-12.7L10.67-12.7 10.67 0 4.2 0 4.2-32.64Q7.62-33.08 12.6-33.08L12.6-33.08Q19.38-33.08 22.72-30.58 26.05-28.08 26.05-22.85L26.05-22.85Q26.05-18.8 23-15.92L23-15.92Q22-14.99 20.7-14.31L20.7-14.31 25.68-3.81Q27.15-0.56 27.93 0.05L27.93 0.05 27.81 0.17Q25.44-0.22 20.36 0.2L20.36 0.2ZM13.06-27.32L13.06-27.32Q11.82-27.32 10.67-27.2L10.67-27.2 10.67-17.87Q11.87-17.7 13.48-17.7 15.09-17.7 16.19-17.98 17.29-18.26 18.09-18.85L18.09-18.85Q19.82-20.14 19.82-22.73 19.82-25.32 18.02-26.37L18.02-26.37Q16.33-27.32 13.06-27.32ZM39.69-5.86L49.66-5.86Q51.17-5.86 51.76-6.15L51.76-6.15 51.85-6.13 51.61 0 33.32 0 33.32-32.64Q33.98-32.59 34.79-32.57L34.79-32.57 36.5-32.52Q38.21-32.47 40.21-32.47L40.21-32.47Q45.8-32.47 51.27-32.67L51.27-32.67Q51-30.52 51-26.93L51-26.93Q51-26.54 51.05-26.34L51.05-26.34 51-26.27Q49.73-26.64 47.39-26.64L47.39-26.64 39.69-26.64 39.69-20.41 45.48-20.41Q48.17-20.41 48.7-20.56L48.7-20.56 48.78-14.53Q47.6-14.65 45.75-14.65L45.75-14.65 39.69-14.65 39.69-5.86ZM77.97-30.66L77.97-30.66 77.51-23.49 77.34-23.44Q75.53-26.15 71.19-26.95L71.19-26.95Q69.82-27.22 68.56-27.22 67.3-27.22 66.41-27 65.52-26.78 64.89-26.37L64.89-26.37Q63.54-25.49 63.54-24.07L63.54-24.07Q63.54-22.22 64.72-21.29L64.72-21.29Q66.18-20.17 69.58-19.71 72.97-19.26 75.02-18.48 77.07-17.7 78.39-16.5L78.39-16.5Q80.88-14.26 80.88-10.16L80.88-10.16Q80.88-4.79 76.83-1.88L76.83-1.88Q73.36 0.61 68.09 0.61L68.09 0.61Q63.84 0.61 59.69-1L59.69-1Q58.32-1.54 57.29-2.25L57.29-2.25 57.56-10.4 57.66-10.47Q60.69-5.25 67.6-5.25L67.6-5.25Q72.5-5.25 74.09-7.62L74.09-7.62Q74.63-8.42 74.63-9.41 74.63-10.4 74.31-11.05 73.99-11.69 73.26-12.16L73.26-12.16Q71.85-13.09 68.5-13.4 65.16-13.72 63.03-14.6 60.91-15.48 59.64-16.77L59.64-16.77Q57.34-19.12 57.34-23.32L57.34-23.32Q57.34-27.66 60.4-30.35L60.4-30.35Q63.5-33.08 68.76-33.08 74.02-33.08 77.97-30.66ZM99.21-27L99.21 0.15Q98.04 0 93.18 0L93.18 0 92.4 0 92.4-27 87.57-27Q85.42-27 85.03-26.78 84.64-26.56 84.42-26.39L84.42-26.39 84.34-26.42 84.34-32.67 84.42-32.74Q85.22-32.47 88.76-32.47L88.76-32.47 104.07-32.47Q106.22-32.47 106.61-32.69 107-32.91 107.22-33.08L107.22-33.08 107.29-33.06 107.29-26.81 107.22-26.73Q106.41-27 102.87-27L102.87-27 99.21-27ZM117.2-7.03L114.91 0.2Q112.81 0 110 0L110 0 108.07 0 118.69-29.76Q119.4-31.76 119.4-32.09 119.4-32.42 119.37-32.5L119.37-32.5 119.4-32.54Q120.99-32.47 122.77-32.47L122.77-32.47Q124.23-32.47 126.28-32.52L126.28-32.52 126.31-32.47Q126.26-32.37 126.26-32.2L126.26-32.2Q126.26-31.74 126.99-29.74L126.99-29.74 137.83 0.07Q137.34 0.05 136.68 0.05L136.68 0.05Q136.68 0.05 135.41 0L135.41 0Q134.8 0 134.32 0L134.32 0 130.53 0 128.24-7.03 117.2-7.03ZM119.06-12.89L126.33-12.89 122.65-24.24 119.06-12.89ZM160.27-12.82L160.27-32.59Q161.78-32.47 162.78-32.47L162.78-32.47 164.81-32.47Q165.83-32.47 166.96-32.67L166.96-32.67 166.96-12.48Q166.96-6.47 163.32-2.83L163.32-2.83Q159.88 0.61 154.68 0.61L154.68 0.61Q148.99 0.61 145.47-2.34L145.47-2.34Q141.54-5.66 141.54-11.91L141.54-11.91 141.54-32.59Q143.57-32.47 145.36-32.47 147.16-32.47 148.33-32.67L148.33-32.67 148.33-11.6Q148.33-8.52 150.21-6.81L150.21-6.81Q151.97-5.25 154.6-5.25L154.6-5.25Q158.51-5.25 159.8-9.25L159.8-9.25Q160.27-10.69 160.27-12.82L160.27-12.82ZM191.32 0.2L185.65-12.62Q184.92-12.57 184.09-12.57 183.26-12.57 181.63-12.7L181.63-12.7 181.63 0 175.16 0 175.16-32.64Q178.57-33.08 183.55-33.08L183.55-33.08Q190.34-33.08 193.67-30.58 197.01-28.08 197.01-22.85L197.01-22.85Q197.01-18.8 193.95-15.92L193.95-15.92Q192.95-14.99 191.66-14.31L191.66-14.31 196.64-3.81Q198.11-0.56 198.89 0.05L198.89 0.05 198.76 0.17Q196.4-0.22 191.32 0.2L191.32 0.2ZM184.02-27.32L184.02-27.32Q182.77-27.32 181.63-27.2L181.63-27.2 181.63-17.87Q182.82-17.7 184.43-17.7 186.04-17.7 187.14-17.98 188.24-18.26 189.05-18.85L189.05-18.85Q190.78-20.14 190.78-22.73 190.78-25.32 188.97-26.37L188.97-26.37Q187.29-27.32 184.02-27.32ZM208.94-7.03L206.65 0.2Q204.55 0 201.74 0L201.74 0 199.81 0 210.43-29.76Q211.14-31.76 211.14-32.09 211.14-32.42 211.12-32.5L211.12-32.5 211.14-32.54Q212.73-32.47 214.51-32.47L214.51-32.47Q215.97-32.47 218.02-32.52L218.02-32.52 218.05-32.47Q218-32.37 218-32.2L218-32.2Q218-31.74 218.73-29.74L218.73-29.74 229.57 0.07Q229.08 0.05 228.42 0.05L228.42 0.05Q228.42 0.05 227.16 0L227.16 0Q226.55 0 226.06 0L226.06 0 222.27 0 219.98-7.03 208.94-7.03ZM210.8-12.89L218.07-12.89 214.39-24.24 210.8-12.89ZM240.09 0L233.72 0Q233.87-0.83 233.87-1.81L233.87-1.81 233.87-32.47 238.75-32.47 251.69-12.11 251.69-30.81Q251.69-32.15 251.44-32.47L251.44-32.47 258.04-32.47Q257.91-31.49 257.91-30.32L257.91-30.32 257.91 0 252.84 0 240.09-19.56 240.09 0ZM278.4-27L278.4 0.15Q277.22 0 272.37 0L272.37 0 271.58 0 271.58-27 266.75-27Q264.6-27 264.21-26.78 263.82-26.56 263.6-26.39L263.6-26.39 263.53-26.42 263.53-32.67 263.6-32.74Q264.41-32.47 267.95-32.47L267.95-32.47 283.25-32.47Q285.4-32.47 285.79-32.69 286.18-32.91 286.4-33.08L286.4-33.08 286.48-33.06 286.48-26.81 286.4-26.73Q285.6-27 282.06-27L282.06-27 278.4-27ZM310.96-3.86Q308.74-5.98 307.46-8.96 306.17-11.94 306.17-15.49 306.17-19.04 307.37-22.22 308.57-25.39 310.79-27.81 313.01-30.22 316.16-31.65 319.31-33.08 323.21-33.08L323.21-33.08Q329.95-33.08 334.57-28.83L334.57-28.83Q339.5-24.29 339.5-16.58L339.5-16.58Q339.5-9.11 334.42-4.15L334.42-4.15Q331.3-1.1 326.97 0.05L326.97 0.05Q324.85 0.61 322.01 0.61 319.16 0.61 316.17-0.56 313.18-1.73 310.96-3.86ZM312.96-15.82L312.96-15.82Q312.96-13.55 313.72-11.65 314.47-9.74 315.82-8.37L315.82-8.37Q318.67-5.49 323.17-5.49L323.17-5.49Q327.44-5.49 330.03-8.25L330.03-8.25Q332.66-11.11 332.66-16.04L332.66-16.04Q332.66-20.68 330.15-23.78L330.15-23.78Q327.44-27.1 322.73-27.1L322.73-27.1Q318.16-27.1 315.48-23.73L315.48-23.73Q312.96-20.58 312.96-15.82ZM361.93 0.2L356.27-12.62Q355.54-12.57 354.71-12.57 353.88-12.57 352.24-12.7L352.24-12.7 352.24 0 345.77 0 345.77-32.64Q349.19-33.08 354.17-33.08L354.17-33.08Q360.96-33.08 364.29-30.58 367.62-28.08 367.62-22.85L367.62-22.85Q367.62-18.8 364.57-15.92L364.57-15.92Q363.57-14.99 362.27-14.31L362.27-14.31 367.26-3.81Q368.72-0.56 369.5 0.05L369.5 0.05 369.38 0.17Q367.01-0.22 361.93 0.2L361.93 0.2ZM354.63-27.32L354.63-27.32Q353.39-27.32 352.24-27.2L352.24-27.2 352.24-17.87Q353.44-17.7 355.05-17.7 356.66-17.7 357.76-17.98 358.86-18.26 359.66-18.85L359.66-18.85Q361.4-20.14 361.4-22.73 361.4-25.32 359.59-26.37L359.59-26.37Q357.9-27.32 354.63-27.32ZM382.8 0.61L382.8 0.61Q378.85 0.61 375.36-0.02L375.36-0.02 375.36-32.69Q378.58-33.08 382.84-33.08 387.1-33.08 390.56-31.92 394.01-30.76 396.33-28.61L396.33-28.61Q401.02-24.32 401.02-16.58L401.02-16.58Q401.02-7.91 395.79-3.42L395.79-3.42Q391.11 0.61 382.8 0.61ZM381.71-27.1L381.71-5.35Q383.29-5.05 384.88-5.05 386.47-5.05 388.3-5.68 390.13-6.3 391.47-7.62L391.47-7.62Q394.35-10.4 394.35-15.72L394.35-15.72Q394.35-24.46 387.98-26.46L387.98-26.46Q385.88-27.12 383.12-27.12L383.12-27.12 382.46-27.12Q382.1-27.12 381.71-27.1L381.71-27.1ZM414.56-5.86L424.53-5.86Q426.04-5.86 426.63-6.15L426.63-6.15 426.72-6.13 426.48 0 408.19 0 408.19-32.64Q408.85-32.59 409.66-32.57L409.66-32.57 411.37-32.52Q413.08-32.47 415.08-32.47L415.08-32.47Q420.67-32.47 426.14-32.67L426.14-32.67Q425.87-30.52 425.87-26.93L425.87-26.93Q425.87-26.54 425.92-26.34L425.92-26.34 425.87-26.27Q424.6-26.64 422.26-26.64L422.26-26.64 414.56-26.64 414.56-20.41 420.35-20.41Q423.04-20.41 423.57-20.56L423.57-20.56 423.65-14.53Q422.47-14.65 420.62-14.65L420.62-14.65 414.56-14.65 414.56-5.86ZM449.4 0.2L443.74-12.62Q443-12.57 442.17-12.57 441.34-12.57 439.71-12.7L439.71-12.7 439.71 0 433.24 0 433.24-32.64Q436.66-33.08 441.64-33.08L441.64-33.08Q448.42-33.08 451.76-30.58 455.09-28.08 455.09-22.85L455.09-22.85Q455.09-18.8 452.04-15.92L452.04-15.92Q451.04-14.99 449.74-14.31L449.74-14.31 454.72-3.81Q456.19-0.56 456.97 0.05L456.97 0.05 456.85 0.17Q454.48-0.22 449.4 0.2L449.4 0.2ZM442.1-27.32L442.1-27.32Q440.86-27.32 439.71-27.2L439.71-27.2 439.71-17.87Q440.9-17.7 442.52-17.7 444.13-17.7 445.23-17.98 446.32-18.26 447.13-18.85L447.13-18.85Q448.86-20.14 448.86-22.73 448.86-25.32 447.06-26.37L447.06-26.37Q445.37-27.32 442.1-27.32ZM498.54-30.66L498.54-30.66 498.08-23.49 497.91-23.44Q496.1-26.15 491.75-26.95L491.75-26.95Q490.39-27.22 489.13-27.22 487.87-27.22 486.98-27 486.09-26.78 485.46-26.37L485.46-26.37Q484.11-25.49 484.11-24.07L484.11-24.07Q484.11-22.22 485.28-21.29L485.28-21.29Q486.75-20.17 490.14-19.71 493.54-19.26 495.59-18.48 497.64-17.7 498.96-16.5L498.96-16.5Q501.45-14.26 501.45-10.16L501.45-10.16Q501.45-4.79 497.39-1.88L497.39-1.88Q493.93 0.61 488.65 0.61L488.65 0.61Q484.41 0.61 480.26-1L480.26-1Q478.89-1.54 477.86-2.25L477.86-2.25 478.13-10.4 478.23-10.47Q481.26-5.25 488.17-5.25L488.17-5.25Q493.07-5.25 494.66-7.62L494.66-7.62Q495.2-8.42 495.2-9.41 495.2-10.4 494.88-11.05 494.56-11.69 493.83-12.16L493.83-12.16Q492.41-13.09 489.07-13.4 485.72-13.72 483.6-14.6 481.48-15.48 480.21-16.77L480.21-16.77Q477.91-19.12 477.91-23.32L477.91-23.32Q477.91-27.66 480.96-30.35L480.96-30.35Q484.06-33.08 489.33-33.08 494.59-33.08 498.54-30.66ZM522.2 0L514.87 0Q515.19-0.95 515.19-4.44L515.19-4.44 515.19-11.23Q510.97-20.53 509.79-22.84 508.62-25.15 507.82-26.49L507.82-26.49Q505.28-30.79 504.75-31.42 504.23-32.06 503.69-32.47L503.69-32.47 512.11-32.47Q512.38-31.98 512.85-31.03L512.85-31.03 518.75-18.55Q519.17-19.58 519.73-20.85L519.73-20.85Q525.05-32.3 525.13-32.47L525.13-32.47 533.18-32.47Q531.94-31.47 530.13-28.27L530.13-28.27Q529.57-27.32 529.01-26.1L529.01-26.1 523.49-14.6Q522.56-12.52 521.9-10.86L521.9-10.86 521.9-3.86Q521.9-1.42 522.2 0L522.2 0ZM556.79-30.66L556.79-30.66 556.32-23.49 556.15-23.44Q554.35-26.15 550-26.95L550-26.95Q548.63-27.22 547.38-27.22 546.12-27.22 545.23-27 544.34-26.78 543.7-26.37L543.7-26.37Q542.36-25.49 542.36-24.07L542.36-24.07Q542.36-22.22 543.53-21.29L543.53-21.29Q545-20.17 548.39-19.71 551.78-19.26 553.83-18.48 555.89-17.7 557.2-16.5L557.2-16.5Q559.69-14.26 559.69-10.16L559.69-10.16Q559.69-4.79 555.64-1.88L555.64-1.88Q552.17 0.61 546.9 0.61L546.9 0.61Q542.65 0.61 538.5-1L538.5-1Q537.14-1.54 536.11-2.25L536.11-2.25 536.38-10.4 536.48-10.47Q539.5-5.25 546.41-5.25L546.41-5.25Q551.32-5.25 552.91-7.62L552.91-7.62Q553.44-8.42 553.44-9.41 553.44-10.4 553.13-11.05 552.81-11.69 552.08-12.16L552.08-12.16Q550.66-13.09 547.32-13.4 543.97-13.72 541.85-14.6 539.72-15.48 538.45-16.77L538.45-16.77Q536.16-19.12 536.16-23.32L536.16-23.32Q536.16-27.66 539.21-30.35L539.21-30.35Q542.31-33.08 547.57-33.08 552.83-33.08 556.79-30.66ZM578.03-27L578.03 0.15Q576.85 0 572 0L572 0 571.21 0 571.21-27 566.38-27Q564.23-27 563.84-26.78 563.45-26.56 563.23-26.39L563.23-26.39 563.16-26.42 563.16-32.67 563.23-32.74Q564.04-32.47 567.58-32.47L567.58-32.47 582.88-32.47Q585.03-32.47 585.42-32.69 585.81-32.91 586.03-33.08L586.03-33.08 586.11-33.06 586.11-26.81 586.03-26.73Q585.23-27 581.69-27L581.69-27 578.03-27ZM597.73-5.86L607.69-5.86Q609.2-5.86 609.79-6.15L609.79-6.15 609.88-6.13 609.64 0 591.35 0 591.35-32.64Q592.01-32.59 592.82-32.57L592.82-32.57 594.53-32.52Q596.24-32.47 598.24-32.47L598.24-32.47Q603.83-32.47 609.3-32.67L609.3-32.67Q609.03-30.52 609.03-26.93L609.03-26.93Q609.03-26.54 609.08-26.34L609.08-26.34 609.03-26.27Q607.76-26.64 605.42-26.64L605.42-26.64 597.73-26.64 597.73-20.41 603.51-20.41Q606.2-20.41 606.73-20.56L606.73-20.56 606.81-14.53Q605.64-14.65 603.78-14.65L603.78-14.65 597.73-14.65 597.73-5.86ZM622.99-20.58L622.99 0.15Q621.82 0 618.48 0L618.48 0 616.52 0 616.52-32.57Q618.08-32.47 619.96-32.47 621.84-32.47 622.63-32.67L622.63-32.67 630.83-18.73 638.71-32.67Q639.5-32.47 641.69-32.47 643.89-32.47 645.45-32.57L645.45-32.57 645.45 0 643.5 0Q640.15 0 638.98 0.15L638.98 0.15 638.98-21.73 631-7.45 622.99-20.58Z" opacity="1" transform="matrix(1,0,0,1,0,0)" fill="#ffffff" class="undefined-text-0" data-fill-palette-color="primary" id="text-0"></path></svg></g></svg></g><g transform="matrix(1,0,0,1,0,15.872823134073272)"><svg viewBox="0 0 244.43135999999998 7.935923597624485" height="7.935923597624485" width="244.43135999999998"><g transform="matrix(1,0,0,1,0,0)"><svg width="244.43135999999998" viewBox="1.149999976158142 -37 1432.22998046875 46.5" height="7.935923597624485" data-palette-color="#ffffff"><path d="M17.4 0L12.8 0Q12.3 0 11.95-0.35 11.6-0.7 11.6-1.2L11.6-1.2 11.6-28.85 2.35-28.85Q1.85-28.85 1.5-29.2 1.15-29.55 1.15-30.05L1.15-30.05 1.15-33.75Q1.15-34.3 1.5-34.65 1.85-35 2.35-35L2.35-35 27.85-35Q28.4-35 28.75-34.65 29.1-34.3 29.1-33.75L29.1-33.75 29.1-30.05Q29.1-29.55 28.75-29.2 28.4-28.85 27.85-28.85L27.85-28.85 18.65-28.85 18.65-1.2Q18.65-0.7 18.3-0.35 17.95 0 17.4 0L17.4 0ZM53.55 0L49.1 0Q48.6 0 48.25-0.35 47.9-0.7 47.9-1.2L47.9-1.2 47.9-34.3Q47.9-34.8 48.25-35.15 48.6-35.5 49.1-35.5L49.1-35.5 53.55-35.5Q54.1-35.5 54.42-35.15 54.75-34.8 54.75-34.3L54.75-34.3 54.75-22.9Q56.1-24.5 58.05-25.5 60-26.5 62.85-26.5L62.85-26.5Q65.9-26.5 68.17-25.13 70.45-23.75 71.7-21.25 72.95-18.75 72.95-15.25L72.95-15.25 72.95-1.2Q72.95-0.7 72.6-0.35 72.25 0 71.75 0L71.75 0 67.25 0Q66.75 0 66.4-0.35 66.05-0.7 66.05-1.2L66.05-1.2 66.05-14.95Q66.05-17.85 64.62-19.5 63.2-21.15 60.5-21.15L60.5-21.15Q57.9-21.15 56.32-19.5 54.75-17.85 54.75-14.95L54.75-14.95 54.75-1.2Q54.75-0.7 54.42-0.35 54.1 0 53.55 0L53.55 0ZM104.79 0.5L104.79 0.5Q99.24 0.5 95.99-2.7 92.74-5.9 92.49-11.8L92.49-11.8Q92.44-12.3 92.44-13.08 92.44-13.85 92.49-14.3L92.49-14.3Q92.69-18.1 94.22-20.83 95.74-23.55 98.44-25.03 101.14-26.5 104.79-26.5L104.79-26.5Q108.84-26.5 111.59-24.83 114.34-23.15 115.74-20.18 117.14-17.2 117.14-13.3L117.14-13.3 117.14-12.25Q117.14-11.75 116.79-11.4 116.44-11.05 115.89-11.05L115.89-11.05 99.29-11.05Q99.29-11.05 99.29-10.9 99.29-10.75 99.29-10.65L99.29-10.65Q99.34-8.9 99.97-7.43 100.59-5.95 101.82-5.05 103.04-4.15 104.74-4.15L104.74-4.15Q106.14-4.15 107.09-4.58 108.04-5 108.64-5.55 109.24-6.1 109.49-6.45L109.49-6.45Q109.94-7.05 110.22-7.18 110.49-7.3 111.04-7.3L111.04-7.3 115.34-7.3Q115.84-7.3 116.17-7 116.49-6.7 116.44-6.25L116.44-6.25Q116.39-5.45 115.62-4.3 114.84-3.15 113.39-2.05 111.94-0.95 109.77-0.23 107.59 0.5 104.79 0.5ZM99.29-15.4L99.29-15.25 110.34-15.25 110.34-15.4Q110.34-17.35 109.69-18.82 109.04-20.3 107.79-21.13 106.54-21.95 104.79-21.95L104.79-21.95Q103.04-21.95 101.79-21.13 100.54-20.3 99.92-18.82 99.29-17.35 99.29-15.4L99.29-15.4ZM176.88 0.5L176.88 0.5Q173.98 0.5 172.06-0.5 170.13-1.5 168.88-3.05L168.88-3.05 168.88-1.2Q168.88-0.7 168.56-0.35 168.23 0 167.68 0L167.68 0 163.73 0Q163.23 0 162.88-0.35 162.53-0.7 162.53-1.2L162.53-1.2 162.53-34.3Q162.53-34.8 162.88-35.15 163.23-35.5 163.73-35.5L163.73-35.5 167.98-35.5Q168.53-35.5 168.86-35.15 169.18-34.8 169.18-34.3L169.18-34.3 169.18-23.2Q170.43-24.65 172.31-25.58 174.18-26.5 176.88-26.5L176.88-26.5Q179.53-26.5 181.48-25.6 183.43-24.7 184.76-23.08 186.08-21.45 186.78-19.3 187.48-17.15 187.53-14.65L187.53-14.65Q187.58-13.75 187.58-13.03 187.58-12.3 187.53-11.4L187.53-11.4Q187.43-8.8 186.73-6.63 186.03-4.45 184.73-2.85 183.43-1.25 181.48-0.38 179.53 0.5 176.88 0.5ZM175.03-4.85L175.03-4.85Q177.18-4.85 178.38-5.78 179.58-6.7 180.13-8.2 180.68-9.7 180.78-11.5L180.78-11.5Q180.83-13 180.78-14.5L180.78-14.5Q180.68-16.3 180.13-17.8 179.58-19.3 178.38-20.23 177.18-21.15 175.03-21.15L175.03-21.15Q173.03-21.15 171.78-20.25 170.53-19.35 169.88-17.98 169.23-16.6 169.18-15.1L169.18-15.1Q169.13-14.2 169.13-13.18 169.13-12.15 169.18-11.25L169.18-11.25Q169.28-9.7 169.86-8.22 170.43-6.75 171.71-5.8 172.98-4.85 175.03-4.85ZM218.63 0.5L218.63 0.5Q213.08 0.5 209.83-2.7 206.58-5.9 206.33-11.8L206.33-11.8Q206.28-12.3 206.28-13.08 206.28-13.85 206.33-14.3L206.33-14.3Q206.53-18.1 208.05-20.83 209.58-23.55 212.28-25.03 214.98-26.5 218.63-26.5L218.63-26.5Q222.68-26.5 225.43-24.83 228.18-23.15 229.58-20.18 230.98-17.2 230.98-13.3L230.98-13.3 230.98-12.25Q230.98-11.75 230.63-11.4 230.28-11.05 229.73-11.05L229.73-11.05 213.13-11.05Q213.13-11.05 213.13-10.9 213.13-10.75 213.13-10.65L213.13-10.65Q213.18-8.9 213.8-7.43 214.43-5.95 215.65-5.05 216.88-4.15 218.58-4.15L218.58-4.15Q219.98-4.15 220.93-4.58 221.88-5 222.48-5.55 223.08-6.1 223.33-6.45L223.33-6.45Q223.78-7.05 224.05-7.18 224.33-7.3 224.88-7.3L224.88-7.3 229.18-7.3Q229.68-7.3 230-7 230.33-6.7 230.28-6.25L230.28-6.25Q230.23-5.45 229.45-4.3 228.68-3.15 227.23-2.05 225.78-0.95 223.6-0.23 221.43 0.5 218.63 0.5ZM213.13-15.4L213.13-15.25 224.18-15.25 224.18-15.4Q224.18-17.35 223.53-18.82 222.88-20.3 221.63-21.13 220.38-21.95 218.63-21.95L218.63-21.95Q216.88-21.95 215.63-21.13 214.38-20.3 213.75-18.82 213.13-17.35 213.13-15.4L213.13-15.4ZM260.42 0.5L260.42 0.5Q257.42 0.5 255.3-0.2 253.17-0.9 251.82-1.95 250.47-3 249.82-4.05 249.17-5.1 249.12-5.8L249.12-5.8Q249.07-6.35 249.45-6.68 249.82-7 250.27-7L250.27-7 254.22-7Q254.42-7 254.57-6.95 254.72-6.9 254.97-6.65L254.97-6.65Q255.62-6.1 256.35-5.5 257.07-4.9 258.07-4.48 259.07-4.05 260.57-4.05L260.57-4.05Q262.52-4.05 263.85-4.83 265.17-5.6 265.17-7.05L265.17-7.05Q265.17-8.1 264.6-8.75 264.02-9.4 262.47-9.93 260.92-10.45 258.07-11.05L258.07-11.05Q255.27-11.7 253.42-12.7 251.57-13.7 250.67-15.2 249.77-16.7 249.77-18.7L249.77-18.7Q249.77-20.65 250.95-22.43 252.12-24.2 254.45-25.35 256.77-26.5 260.22-26.5L260.22-26.5Q262.92-26.5 264.92-25.83 266.92-25.15 268.25-24.15 269.57-23.15 270.27-22.13 270.97-21.1 271.02-20.35L271.02-20.35Q271.07-19.8 270.72-19.48 270.37-19.15 269.92-19.15L269.92-19.15 266.22-19.15Q265.97-19.15 265.77-19.25 265.57-19.35 265.37-19.5L265.37-19.5Q264.82-20 264.17-20.58 263.52-21.15 262.6-21.55 261.67-21.95 260.17-21.95L260.17-21.95Q258.27-21.95 257.27-21.13 256.27-20.3 256.27-19.05L256.27-19.05Q256.27-18.2 256.75-17.57 257.22-16.95 258.67-16.4 260.12-15.85 263.07-15.25L263.07-15.25Q266.42-14.65 268.4-13.48 270.37-12.3 271.2-10.78 272.02-9.25 272.02-7.4L272.02-7.4Q272.02-5.15 270.7-3.35 269.37-1.55 266.8-0.53 264.22 0.5 260.42 0.5ZM307.27 0L303.22 0Q300.22 0 298.17-1.05 296.12-2.1 295.12-4.17 294.12-6.25 294.12-9.35L294.12-9.35 294.12-20.7 290.17-20.7Q289.67-20.7 289.32-21.05 288.97-21.4 288.97-21.95L288.97-21.95 288.97-24.8Q288.97-25.3 289.32-25.65 289.67-26 290.17-26L290.17-26 294.12-26 294.12-34.3Q294.12-34.8 294.44-35.15 294.77-35.5 295.32-35.5L295.32-35.5 299.37-35.5Q299.87-35.5 300.22-35.15 300.57-34.8 300.57-34.3L300.57-34.3 300.57-26 306.82-26Q307.32-26 307.67-25.65 308.02-25.3 308.02-24.8L308.02-24.8 308.02-21.95Q308.02-21.4 307.67-21.05 307.32-20.7 306.82-20.7L306.82-20.7 300.57-20.7 300.57-9.85Q300.57-7.8 301.29-6.65 302.02-5.5 303.82-5.5L303.82-5.5 307.27-5.5Q307.77-5.5 308.12-5.15 308.47-4.8 308.47-4.3L308.47-4.3 308.47-1.2Q308.47-0.7 308.12-0.35 307.77 0 307.27 0L307.27 0ZM364.46 0.5L364.46 0.5Q360.46 0.5 357.73-0.9 355.01-2.3 353.58-4.85 352.16-7.4 351.96-10.8L351.96-10.8Q351.91-11.7 351.91-13 351.91-14.3 351.96-15.2L351.96-15.2Q352.16-18.65 353.63-21.18 355.11-23.7 357.83-25.1 360.56-26.5 364.46-26.5L364.46-26.5Q368.36-26.5 371.08-25.1 373.81-23.7 375.28-21.18 376.76-18.65 376.96-15.2L376.96-15.2Q377.01-14.3 377.01-13 377.01-11.7 376.96-10.8L376.96-10.8Q376.76-7.4 375.33-4.85 373.91-2.3 371.18-0.9 368.46 0.5 364.46 0.5ZM364.46-4.45L364.46-4.45Q367.11-4.45 368.56-6.13 370.01-7.8 370.16-11.05L370.16-11.05Q370.21-11.8 370.21-13 370.21-14.2 370.16-14.95L370.16-14.95Q370.01-18.2 368.56-19.88 367.11-21.55 364.46-21.55L364.46-21.55Q361.81-21.55 360.36-19.88 358.91-18.2 358.76-14.95L358.76-14.95Q358.71-14.2 358.71-13 358.71-11.8 358.76-11.05L358.76-11.05Q358.91-7.8 360.36-6.13 361.81-4.45 364.46-4.45ZM402.4 0L398.05 0Q397.55 0 397.2-0.35 396.85-0.7 396.85-1.2L396.85-1.2 396.85-24.75Q396.85-25.3 397.2-25.65 397.55-26 398.05-26L398.05-26 402.1-26Q402.6-26 402.98-25.65 403.35-25.3 403.35-24.75L403.35-24.75 403.35-22.7Q404.5-24.3 406.33-25.15 408.15-26 410.55-26L410.55-26 412.6-26Q413.15-26 413.48-25.65 413.8-25.3 413.8-24.8L413.8-24.8 413.8-21.2Q413.8-20.7 413.48-20.35 413.15-20 412.6-20L412.6-20 408.7-20Q406.3-20 404.98-18.68 403.65-17.35 403.65-14.95L403.65-14.95 403.65-1.2Q403.65-0.7 403.3-0.35 402.95 0 402.4 0L402.4 0ZM441.65 0.5L441.65 0.5Q439.05 0.5 437.07-0.38 435.1-1.25 433.8-2.85 432.5-4.45 431.8-6.63 431.1-8.8 431-11.4L431-11.4Q430.95-12.3 430.95-13.03 430.95-13.75 431-14.65L431-14.65Q431.1-17.15 431.77-19.3 432.45-21.45 433.77-23.08 435.1-24.7 437.07-25.6 439.05-26.5 441.65-26.5L441.65-26.5Q444.35-26.5 446.22-25.58 448.1-24.65 449.35-23.2L449.35-23.2 449.35-34.3Q449.35-34.8 449.67-35.15 450-35.5 450.55-35.5L450.55-35.5 454.8-35.5Q455.3-35.5 455.65-35.15 456-34.8 456-34.3L456-34.3 456-1.2Q456-0.7 455.65-0.35 455.3 0 454.8 0L454.8 0 450.85 0Q450.3 0 449.97-0.35 449.65-0.7 449.65-1.2L449.65-1.2 449.65-3.05Q448.4-1.5 446.47-0.5 444.55 0.5 441.65 0.5ZM443.5-4.85L443.5-4.85Q445.6-4.85 446.85-5.8 448.1-6.75 448.7-8.22 449.3-9.7 449.35-11.25L449.35-11.25Q449.4-12.15 449.4-13.18 449.4-14.2 449.35-15.1L449.35-15.1Q449.3-16.6 448.65-17.98 448-19.35 446.75-20.25 445.5-21.15 443.5-21.15L443.5-21.15Q441.4-21.15 440.17-20.23 438.95-19.3 438.4-17.8 437.85-16.3 437.75-14.5L437.75-14.5Q437.7-13 437.75-11.5L437.75-11.5Q437.85-9.7 438.4-8.2 438.95-6.7 440.17-5.78 441.4-4.85 443.5-4.85ZM488.14 0.5L488.14 0.5Q482.59 0.5 479.34-2.7 476.09-5.9 475.84-11.8L475.84-11.8Q475.79-12.3 475.79-13.08 475.79-13.85 475.84-14.3L475.84-14.3Q476.04-18.1 477.57-20.83 479.09-23.55 481.79-25.03 484.49-26.5 488.14-26.5L488.14-26.5Q492.19-26.5 494.94-24.83 497.69-23.15 499.09-20.18 500.49-17.2 500.49-13.3L500.49-13.3 500.49-12.25Q500.49-11.75 500.14-11.4 499.79-11.05 499.24-11.05L499.24-11.05 482.64-11.05Q482.64-11.05 482.64-10.9 482.64-10.75 482.64-10.65L482.64-10.65Q482.69-8.9 483.32-7.43 483.94-5.95 485.17-5.05 486.39-4.15 488.09-4.15L488.09-4.15Q489.49-4.15 490.44-4.58 491.39-5 491.99-5.55 492.59-6.1 492.84-6.45L492.84-6.45Q493.29-7.05 493.57-7.18 493.84-7.3 494.39-7.3L494.39-7.3 498.69-7.3Q499.19-7.3 499.52-7 499.84-6.7 499.79-6.25L499.79-6.25Q499.74-5.45 498.97-4.3 498.19-3.15 496.74-2.05 495.29-0.95 493.12-0.23 490.94 0.5 488.14 0.5ZM482.64-15.4L482.64-15.25 493.69-15.25 493.69-15.4Q493.69-17.35 493.04-18.82 492.39-20.3 491.14-21.13 489.89-21.95 488.14-21.95L488.14-21.95Q486.39-21.95 485.14-21.13 483.89-20.3 483.27-18.82 482.64-17.35 482.64-15.4L482.64-15.4ZM525.64 0L521.29 0Q520.79 0 520.44-0.35 520.09-0.7 520.09-1.2L520.09-1.2 520.09-24.75Q520.09-25.3 520.44-25.65 520.79-26 521.29-26L521.29-26 525.34-26Q525.84-26 526.21-25.65 526.59-25.3 526.59-24.75L526.59-24.75 526.59-22.7Q527.74-24.3 529.56-25.15 531.39-26 533.79-26L533.79-26 535.84-26Q536.39-26 536.71-25.65 537.04-25.3 537.04-24.8L537.04-24.8 537.04-21.2Q537.04-20.7 536.71-20.35 536.39-20 535.84-20L535.84-20 531.94-20Q529.54-20 528.21-18.68 526.89-17.35 526.89-14.95L526.89-14.95 526.89-1.2Q526.89-0.7 526.54-0.35 526.19 0 525.64 0L525.64 0ZM590.83 0.5L590.83 0.5Q587.83 0.5 585.7-0.2 583.58-0.9 582.23-1.95 580.88-3 580.23-4.05 579.58-5.1 579.53-5.8L579.53-5.8Q579.48-6.35 579.85-6.68 580.23-7 580.68-7L580.68-7 584.63-7Q584.83-7 584.98-6.95 585.13-6.9 585.38-6.65L585.38-6.65Q586.03-6.1 586.75-5.5 587.48-4.9 588.48-4.48 589.48-4.05 590.98-4.05L590.98-4.05Q592.93-4.05 594.25-4.83 595.58-5.6 595.58-7.05L595.58-7.05Q595.58-8.1 595-8.75 594.43-9.4 592.88-9.93 591.33-10.45 588.48-11.05L588.48-11.05Q585.68-11.7 583.83-12.7 581.98-13.7 581.08-15.2 580.18-16.7 580.18-18.7L580.18-18.7Q580.18-20.65 581.35-22.43 582.53-24.2 584.85-25.35 587.18-26.5 590.63-26.5L590.63-26.5Q593.33-26.5 595.33-25.83 597.33-25.15 598.65-24.15 599.98-23.15 600.68-22.13 601.38-21.1 601.43-20.35L601.43-20.35Q601.48-19.8 601.13-19.48 600.78-19.15 600.33-19.15L600.33-19.15 596.63-19.15Q596.38-19.15 596.18-19.25 595.98-19.35 595.78-19.5L595.78-19.5Q595.23-20 594.58-20.58 593.93-21.15 593-21.55 592.08-21.95 590.58-21.95L590.58-21.95Q588.68-21.95 587.68-21.13 586.68-20.3 586.68-19.05L586.68-19.05Q586.68-18.2 587.15-17.57 587.63-16.95 589.08-16.4 590.53-15.85 593.48-15.25L593.48-15.25Q596.83-14.65 598.8-13.48 600.78-12.3 601.6-10.78 602.43-9.25 602.43-7.4L602.43-7.4Q602.43-5.15 601.1-3.35 599.78-1.55 597.2-0.53 594.63 0.5 590.83 0.5ZM630.52 9.5L626.57 9.5Q626.17 9.5 625.87 9.2 625.57 8.9 625.57 8.5L625.57 8.5Q625.57 8.3 625.6 8.13 625.62 7.95 625.77 7.7L625.77 7.7 629.67-1.55 620.07-24.2Q619.87-24.7 619.87-24.9L619.87-24.9Q619.92-25.35 620.22-25.68 620.52-26 620.97-26L620.97-26 625.02-26Q625.62-26 625.92-25.7 626.22-25.4 626.37-25.05L626.37-25.05 633.02-8.7 639.87-25.05Q640.02-25.45 640.32-25.73 640.62-26 641.22-26L641.22-26 645.22-26Q645.62-26 645.95-25.7 646.27-25.4 646.27-25L646.27-25Q646.27-24.7 646.07-24.2L646.07-24.2 631.92 8.55Q631.72 8.95 631.42 9.22 631.12 9.5 630.52 9.5L630.52 9.5ZM674.72 0.5L674.72 0.5Q671.72 0.5 669.59-0.2 667.47-0.9 666.12-1.95 664.77-3 664.12-4.05 663.47-5.1 663.42-5.8L663.42-5.8Q663.37-6.35 663.74-6.68 664.12-7 664.57-7L664.57-7 668.52-7Q668.72-7 668.87-6.95 669.02-6.9 669.27-6.65L669.27-6.65Q669.92-6.1 670.64-5.5 671.37-4.9 672.37-4.48 673.37-4.05 674.87-4.05L674.87-4.05Q676.82-4.05 678.14-4.83 679.47-5.6 679.47-7.05L679.47-7.05Q679.47-8.1 678.89-8.75 678.32-9.4 676.77-9.93 675.22-10.45 672.37-11.05L672.37-11.05Q669.57-11.7 667.72-12.7 665.87-13.7 664.97-15.2 664.07-16.7 664.07-18.7L664.07-18.7Q664.07-20.65 665.24-22.43 666.42-24.2 668.74-25.35 671.07-26.5 674.52-26.5L674.52-26.5Q677.22-26.5 679.22-25.83 681.22-25.15 682.54-24.15 683.87-23.15 684.57-22.13 685.27-21.1 685.32-20.35L685.32-20.35Q685.37-19.8 685.02-19.48 684.67-19.15 684.22-19.15L684.22-19.15 680.52-19.15Q680.27-19.15 680.07-19.25 679.87-19.35 679.67-19.5L679.67-19.5Q679.12-20 678.47-20.58 677.82-21.15 676.89-21.55 675.97-21.95 674.47-21.95L674.47-21.95Q672.57-21.95 671.57-21.13 670.57-20.3 670.57-19.05L670.57-19.05Q670.57-18.2 671.04-17.57 671.52-16.95 672.97-16.4 674.42-15.85 677.37-15.25L677.37-15.25Q680.72-14.65 682.69-13.48 684.67-12.3 685.49-10.78 686.32-9.25 686.32-7.4L686.32-7.4Q686.32-5.15 684.99-3.35 683.67-1.55 681.09-0.53 678.52 0.5 674.72 0.5ZM721.56 0L717.51 0Q714.51 0 712.46-1.05 710.41-2.1 709.41-4.17 708.41-6.25 708.41-9.35L708.41-9.35 708.41-20.7 704.46-20.7Q703.96-20.7 703.61-21.05 703.26-21.4 703.26-21.95L703.26-21.95 703.26-24.8Q703.26-25.3 703.61-25.65 703.96-26 704.46-26L704.46-26 708.41-26 708.41-34.3Q708.41-34.8 708.74-35.15 709.06-35.5 709.61-35.5L709.61-35.5 713.66-35.5Q714.16-35.5 714.51-35.15 714.86-34.8 714.86-34.3L714.86-34.3 714.86-26 721.11-26Q721.61-26 721.96-25.65 722.31-25.3 722.31-24.8L722.31-24.8 722.31-21.95Q722.31-21.4 721.96-21.05 721.61-20.7 721.11-20.7L721.11-20.7 714.86-20.7 714.86-9.85Q714.86-7.8 715.59-6.65 716.31-5.5 718.11-5.5L718.11-5.5 721.56-5.5Q722.06-5.5 722.41-5.15 722.76-4.8 722.76-4.3L722.76-4.3 722.76-1.2Q722.76-0.7 722.41-0.35 722.06 0 721.56 0L721.56 0ZM752.71 0.5L752.71 0.5Q747.16 0.5 743.91-2.7 740.66-5.9 740.41-11.8L740.41-11.8Q740.36-12.3 740.36-13.08 740.36-13.85 740.41-14.3L740.41-14.3Q740.61-18.1 742.13-20.83 743.66-23.55 746.36-25.03 749.06-26.5 752.71-26.5L752.71-26.5Q756.76-26.5 759.51-24.83 762.26-23.15 763.66-20.18 765.06-17.2 765.06-13.3L765.06-13.3 765.06-12.25Q765.06-11.75 764.71-11.4 764.36-11.05 763.81-11.05L763.81-11.05 747.21-11.05Q747.21-11.05 747.21-10.9 747.21-10.75 747.21-10.65L747.21-10.65Q747.26-8.9 747.88-7.43 748.51-5.95 749.73-5.05 750.96-4.15 752.66-4.15L752.66-4.15Q754.06-4.15 755.01-4.58 755.96-5 756.56-5.55 757.16-6.1 757.41-6.45L757.41-6.45Q757.86-7.05 758.13-7.18 758.41-7.3 758.96-7.3L758.96-7.3 763.26-7.3Q763.76-7.3 764.08-7 764.41-6.7 764.36-6.25L764.36-6.25Q764.31-5.45 763.53-4.3 762.76-3.15 761.31-2.05 759.86-0.95 757.68-0.23 755.51 0.5 752.71 0.5ZM747.21-15.4L747.21-15.25 758.26-15.25 758.26-15.4Q758.26-17.35 757.61-18.82 756.96-20.3 755.71-21.13 754.46-21.95 752.71-21.95L752.71-21.95Q750.96-21.95 749.71-21.13 748.46-20.3 747.83-18.82 747.21-17.35 747.21-15.4L747.21-15.4ZM790.05 0L785.85 0Q785.35 0 785-0.35 784.65-0.7 784.65-1.2L784.65-1.2 784.65-24.8Q784.65-25.3 785-25.65 785.35-26 785.85-26L785.85-26 789.75-26Q790.25-26 790.6-25.65 790.95-25.3 790.95-24.8L790.95-24.8 790.95-23.1Q792-24.5 793.78-25.48 795.55-26.45 798-26.5L798-26.5Q803.7-26.6 805.95-22.05L805.95-22.05Q807.1-24.05 809.28-25.28 811.45-26.5 814.1-26.5L814.1-26.5Q816.7-26.5 818.83-25.3 820.95-24.1 822.18-21.68 823.4-19.25 823.4-15.55L823.4-15.55 823.4-1.2Q823.4-0.7 823.05-0.35 822.7 0 822.2 0L822.2 0 818.1 0Q817.6 0 817.25-0.35 816.9-0.7 816.9-1.2L816.9-1.2 816.9-15.15Q816.9-17.4 816.25-18.73 815.6-20.05 814.5-20.6 813.4-21.15 812.05-21.15L812.05-21.15Q810.95-21.15 809.85-20.6 808.75-20.05 808.05-18.73 807.35-17.4 807.35-15.15L807.35-15.15 807.35-1.2Q807.35-0.7 807-0.35 806.65 0 806.15 0L806.15 0 802.05 0Q801.55 0 801.2-0.35 800.85-0.7 800.85-1.2L800.85-1.2 800.85-15.15Q800.85-17.4 800.15-18.73 799.45-20.05 798.35-20.6 797.25-21.15 796-21.15L796-21.15Q794.85-21.15 793.75-20.58 792.65-20 791.95-18.7 791.25-17.4 791.25-15.15L791.25-15.15 791.25-1.2Q791.25-0.7 790.9-0.35 790.55 0 790.05 0L790.05 0ZM877.9 0L873.8 0Q873.3 0 872.95-0.35 872.6-0.7 872.6-1.2L872.6-1.2 872.6-20.7 868.55-20.7Q868.05-20.7 867.7-21.05 867.35-21.4 867.35-21.95L867.35-21.95 867.35-24.8Q867.35-25.3 867.7-25.65 868.05-26 868.55-26L868.55-26 872.6-26 872.6-28.05Q872.6-31.05 873.7-33.02 874.8-35 876.95-36 879.1-37 882.4-37L882.4-37 885.8-37Q886.35-37 886.67-36.65 887-36.3 887-35.8L887-35.8 887-32.95Q887-32.4 886.67-32.05 886.35-31.7 885.8-31.7L885.8-31.7 882.6-31.7Q880.6-31.7 879.85-30.7 879.1-29.7 879.1-27.8L879.1-27.8 879.1-26 885.3-26Q885.85-26 886.17-25.65 886.5-25.3 886.5-24.8L886.5-24.8 886.5-21.95Q886.5-21.4 886.17-21.05 885.85-20.7 885.3-20.7L885.3-20.7 879.1-20.7 879.1-1.2Q879.1-0.7 878.75-0.35 878.4 0 877.9 0L877.9 0ZM916.29 0.5L916.29 0.5Q912.29 0.5 909.57-0.9 906.84-2.3 905.42-4.85 903.99-7.4 903.79-10.8L903.79-10.8Q903.74-11.7 903.74-13 903.74-14.3 903.79-15.2L903.79-15.2Q903.99-18.65 905.47-21.18 906.94-23.7 909.67-25.1 912.39-26.5 916.29-26.5L916.29-26.5Q920.19-26.5 922.92-25.1 925.64-23.7 927.12-21.18 928.59-18.65 928.79-15.2L928.79-15.2Q928.84-14.3 928.84-13 928.84-11.7 928.79-10.8L928.79-10.8Q928.59-7.4 927.17-4.85 925.74-2.3 923.02-0.9 920.29 0.5 916.29 0.5ZM916.29-4.45L916.29-4.45Q918.94-4.45 920.39-6.13 921.84-7.8 921.99-11.05L921.99-11.05Q922.04-11.8 922.04-13 922.04-14.2 921.99-14.95L921.99-14.95Q921.84-18.2 920.39-19.88 918.94-21.55 916.29-21.55L916.29-21.55Q913.64-21.55 912.19-19.88 910.74-18.2 910.59-14.95L910.59-14.95Q910.54-14.2 910.54-13 910.54-11.8 910.59-11.05L910.59-11.05Q910.74-7.8 912.19-6.13 913.64-4.45 916.29-4.45ZM954.24 0L949.89 0Q949.39 0 949.04-0.35 948.69-0.7 948.69-1.2L948.69-1.2 948.69-24.75Q948.69-25.3 949.04-25.65 949.39-26 949.89-26L949.89-26 953.94-26Q954.44-26 954.81-25.65 955.19-25.3 955.19-24.75L955.19-24.75 955.19-22.7Q956.34-24.3 958.16-25.15 959.99-26 962.39-26L962.39-26 964.44-26Q964.99-26 965.31-25.65 965.64-25.3 965.64-24.8L965.64-24.8 965.64-21.2Q965.64-20.7 965.31-20.35 964.99-20 964.44-20L964.44-20 960.54-20Q958.14-20 956.81-18.68 955.49-17.35 955.49-14.95L955.49-14.95 955.49-1.2Q955.49-0.7 955.14-0.35 954.79 0 954.24 0L954.24 0ZM1015.13 0L1010.78 0Q1010.28 0 1009.93-0.35 1009.58-0.7 1009.58-1.2L1009.58-1.2 1009.58-24.75Q1009.58-25.3 1009.93-25.65 1010.28-26 1010.78-26L1010.78-26 1014.83-26Q1015.33-26 1015.7-25.65 1016.08-25.3 1016.08-24.75L1016.08-24.75 1016.08-22.7Q1017.23-24.3 1019.05-25.15 1020.88-26 1023.28-26L1023.28-26 1025.33-26Q1025.88-26 1026.2-25.65 1026.53-25.3 1026.53-24.8L1026.53-24.8 1026.53-21.2Q1026.53-20.7 1026.2-20.35 1025.88-20 1025.33-20L1025.33-20 1021.43-20Q1019.03-20 1017.7-18.68 1016.38-17.35 1016.38-14.95L1016.38-14.95 1016.38-1.2Q1016.38-0.7 1016.03-0.35 1015.68 0 1015.13 0L1015.13 0ZM1055.92 0.5L1055.92 0.5Q1050.37 0.5 1047.12-2.7 1043.87-5.9 1043.62-11.8L1043.62-11.8Q1043.57-12.3 1043.57-13.08 1043.57-13.85 1043.62-14.3L1043.62-14.3Q1043.82-18.1 1045.35-20.83 1046.87-23.55 1049.57-25.03 1052.27-26.5 1055.92-26.5L1055.92-26.5Q1059.97-26.5 1062.72-24.83 1065.47-23.15 1066.87-20.18 1068.27-17.2 1068.27-13.3L1068.27-13.3 1068.27-12.25Q1068.27-11.75 1067.92-11.4 1067.57-11.05 1067.02-11.05L1067.02-11.05 1050.42-11.05Q1050.42-11.05 1050.42-10.9 1050.42-10.75 1050.42-10.65L1050.42-10.65Q1050.47-8.9 1051.1-7.43 1051.72-5.95 1052.95-5.05 1054.17-4.15 1055.87-4.15L1055.87-4.15Q1057.27-4.15 1058.22-4.58 1059.17-5 1059.77-5.55 1060.37-6.1 1060.62-6.45L1060.62-6.45Q1061.07-7.05 1061.35-7.18 1061.62-7.3 1062.17-7.3L1062.17-7.3 1066.47-7.3Q1066.97-7.3 1067.3-7 1067.62-6.7 1067.57-6.25L1067.57-6.25Q1067.52-5.45 1066.75-4.3 1065.97-3.15 1064.52-2.05 1063.07-0.95 1060.9-0.23 1058.72 0.5 1055.92 0.5ZM1050.42-15.4L1050.42-15.25 1061.47-15.25 1061.47-15.4Q1061.47-17.35 1060.82-18.82 1060.17-20.3 1058.92-21.13 1057.67-21.95 1055.92-21.95L1055.92-21.95Q1054.17-21.95 1052.92-21.13 1051.67-20.3 1051.05-18.82 1050.42-17.35 1050.42-15.4L1050.42-15.4ZM1097.72 0.5L1097.72 0.5Q1094.72 0.5 1092.59-0.2 1090.47-0.9 1089.12-1.95 1087.77-3 1087.12-4.05 1086.47-5.1 1086.42-5.8L1086.42-5.8Q1086.37-6.35 1086.74-6.68 1087.12-7 1087.57-7L1087.57-7 1091.52-7Q1091.72-7 1091.87-6.95 1092.02-6.9 1092.27-6.65L1092.27-6.65Q1092.92-6.1 1093.64-5.5 1094.37-4.9 1095.37-4.48 1096.37-4.05 1097.87-4.05L1097.87-4.05Q1099.82-4.05 1101.14-4.83 1102.47-5.6 1102.47-7.05L1102.47-7.05Q1102.47-8.1 1101.89-8.75 1101.32-9.4 1099.77-9.93 1098.22-10.45 1095.37-11.05L1095.37-11.05Q1092.57-11.7 1090.72-12.7 1088.87-13.7 1087.97-15.2 1087.07-16.7 1087.07-18.7L1087.07-18.7Q1087.07-20.65 1088.24-22.43 1089.42-24.2 1091.74-25.35 1094.07-26.5 1097.52-26.5L1097.52-26.5Q1100.22-26.5 1102.22-25.83 1104.22-25.15 1105.54-24.15 1106.87-23.15 1107.57-22.13 1108.27-21.1 1108.32-20.35L1108.32-20.35Q1108.37-19.8 1108.02-19.48 1107.67-19.15 1107.22-19.15L1107.22-19.15 1103.52-19.15Q1103.27-19.15 1103.07-19.25 1102.87-19.35 1102.67-19.5L1102.67-19.5Q1102.12-20 1101.47-20.58 1100.82-21.15 1099.89-21.55 1098.97-21.95 1097.47-21.95L1097.47-21.95Q1095.57-21.95 1094.57-21.13 1093.57-20.3 1093.57-19.05L1093.57-19.05Q1093.57-18.2 1094.04-17.57 1094.52-16.95 1095.97-16.4 1097.42-15.85 1100.37-15.25L1100.37-15.25Q1103.72-14.65 1105.69-13.48 1107.67-12.3 1108.49-10.78 1109.32-9.25 1109.32-7.4L1109.32-7.4Q1109.32-5.15 1107.99-3.35 1106.67-1.55 1104.09-0.53 1101.52 0.5 1097.72 0.5ZM1144.56 0L1140.51 0Q1137.51 0 1135.46-1.05 1133.41-2.1 1132.41-4.17 1131.41-6.25 1131.41-9.35L1131.41-9.35 1131.41-20.7 1127.46-20.7Q1126.96-20.7 1126.61-21.05 1126.26-21.4 1126.26-21.95L1126.26-21.95 1126.26-24.8Q1126.26-25.3 1126.61-25.65 1126.96-26 1127.46-26L1127.46-26 1131.41-26 1131.41-34.3Q1131.41-34.8 1131.74-35.15 1132.06-35.5 1132.61-35.5L1132.61-35.5 1136.66-35.5Q1137.16-35.5 1137.51-35.15 1137.86-34.8 1137.86-34.3L1137.86-34.3 1137.86-26 1144.11-26Q1144.61-26 1144.96-25.65 1145.31-25.3 1145.31-24.8L1145.31-24.8 1145.31-21.95Q1145.31-21.4 1144.96-21.05 1144.61-20.7 1144.11-20.7L1144.11-20.7 1137.86-20.7 1137.86-9.85Q1137.86-7.8 1138.59-6.65 1139.31-5.5 1141.11-5.5L1141.11-5.5 1144.56-5.5Q1145.06-5.5 1145.41-5.15 1145.76-4.8 1145.76-4.3L1145.76-4.3 1145.76-1.2Q1145.76-0.7 1145.41-0.35 1145.06 0 1144.56 0L1144.56 0ZM1172.06 0.5L1172.06 0.5Q1169.46 0.5 1167.36-0.53 1165.26-1.55 1164.03-3.28 1162.81-5 1162.81-7.15L1162.81-7.15Q1162.81-10.65 1165.66-12.73 1168.51-14.8 1173.11-15.5L1173.11-15.5 1179.96-16.5 1179.96-17.55Q1179.96-19.65 1178.91-20.8 1177.86-21.95 1175.31-21.95L1175.31-21.95Q1173.51-21.95 1172.38-21.23 1171.26-20.5 1170.71-19.3L1170.71-19.3Q1170.31-18.65 1169.56-18.65L1169.56-18.65 1165.61-18.65Q1165.06-18.65 1164.78-18.95 1164.51-19.25 1164.51-19.75L1164.51-19.75Q1164.56-20.55 1165.18-21.7 1165.81-22.85 1167.08-23.93 1168.36-25 1170.41-25.75 1172.46-26.5 1175.36-26.5L1175.36-26.5Q1178.51-26.5 1180.68-25.73 1182.86-24.95 1184.16-23.65 1185.46-22.35 1186.06-20.6 1186.66-18.85 1186.66-16.9L1186.66-16.9 1186.66-1.2Q1186.66-0.7 1186.31-0.35 1185.96 0 1185.46 0L1185.46 0 1181.41 0Q1180.86 0 1180.53-0.35 1180.21-0.7 1180.21-1.2L1180.21-1.2 1180.21-3.15Q1179.56-2.25 1178.46-1.4 1177.36-0.55 1175.78-0.03 1174.21 0.5 1172.06 0.5ZM1173.76-4.25L1173.76-4.25Q1175.51-4.25 1176.93-5 1178.36-5.75 1179.18-7.33 1180.01-8.9 1180.01-11.3L1180.01-11.3 1180.01-12.35 1175.01-11.55Q1172.06-11.1 1170.61-10.1 1169.16-9.1 1169.16-7.65L1169.16-7.65Q1169.16-6.55 1169.83-5.78 1170.51-5 1171.56-4.63 1172.61-4.25 1173.76-4.25ZM1217 0.5L1217 0.5Q1213.95 0.5 1211.73-0.88 1209.5-2.25 1208.3-4.78 1207.1-7.3 1207.1-10.75L1207.1-10.75 1207.1-24.8Q1207.1-25.3 1207.45-25.65 1207.8-26 1208.3-26L1208.3-26 1212.7-26Q1213.25-26 1213.58-25.65 1213.9-25.3 1213.9-24.8L1213.9-24.8 1213.9-11.05Q1213.9-4.85 1219.35-4.85L1219.35-4.85Q1221.95-4.85 1223.48-6.5 1225-8.15 1225-11.05L1225-11.05 1225-24.8Q1225-25.3 1225.35-25.65 1225.7-26 1226.2-26L1226.2-26 1230.6-26Q1231.1-26 1231.45-25.65 1231.8-25.3 1231.8-24.8L1231.8-24.8 1231.8-1.2Q1231.8-0.7 1231.45-0.35 1231.1 0 1230.6 0L1230.6 0 1226.55 0Q1226 0 1225.68-0.35 1225.35-0.7 1225.35-1.2L1225.35-1.2 1225.35-3.25Q1224-1.5 1222-0.5 1220 0.5 1217 0.5ZM1258.25 0L1253.9 0Q1253.4 0 1253.05-0.35 1252.7-0.7 1252.7-1.2L1252.7-1.2 1252.7-24.75Q1252.7-25.3 1253.05-25.65 1253.4-26 1253.9-26L1253.9-26 1257.95-26Q1258.45-26 1258.82-25.65 1259.2-25.3 1259.2-24.75L1259.2-24.75 1259.2-22.7Q1260.35-24.3 1262.17-25.15 1264-26 1266.4-26L1266.4-26 1268.45-26Q1269-26 1269.32-25.65 1269.65-25.3 1269.65-24.8L1269.65-24.8 1269.65-21.2Q1269.65-20.7 1269.32-20.35 1269-20 1268.45-20L1268.45-20 1264.55-20Q1262.15-20 1260.82-18.68 1259.5-17.35 1259.5-14.95L1259.5-14.95 1259.5-1.2Q1259.5-0.7 1259.15-0.35 1258.8 0 1258.25 0L1258.25 0ZM1295.39 0.5L1295.39 0.5Q1292.79 0.5 1290.69-0.53 1288.59-1.55 1287.37-3.28 1286.14-5 1286.14-7.15L1286.14-7.15Q1286.14-10.65 1288.99-12.73 1291.84-14.8 1296.44-15.5L1296.44-15.5 1303.29-16.5 1303.29-17.55Q1303.29-19.65 1302.24-20.8 1301.19-21.95 1298.64-21.95L1298.64-21.95Q1296.84-21.95 1295.72-21.23 1294.59-20.5 1294.04-19.3L1294.04-19.3Q1293.64-18.65 1292.89-18.65L1292.89-18.65 1288.94-18.65Q1288.39-18.65 1288.12-18.95 1287.84-19.25 1287.84-19.75L1287.84-19.75Q1287.89-20.55 1288.52-21.7 1289.14-22.85 1290.42-23.93 1291.69-25 1293.74-25.75 1295.79-26.5 1298.69-26.5L1298.69-26.5Q1301.84-26.5 1304.02-25.73 1306.19-24.95 1307.49-23.65 1308.79-22.35 1309.39-20.6 1309.99-18.85 1309.99-16.9L1309.99-16.9 1309.99-1.2Q1309.99-0.7 1309.64-0.35 1309.29 0 1308.79 0L1308.79 0 1304.74 0Q1304.19 0 1303.87-0.35 1303.54-0.7 1303.54-1.2L1303.54-1.2 1303.54-3.15Q1302.89-2.25 1301.79-1.4 1300.69-0.55 1299.12-0.03 1297.54 0.5 1295.39 0.5ZM1297.09-4.25L1297.09-4.25Q1298.84-4.25 1300.27-5 1301.69-5.75 1302.52-7.33 1303.34-8.9 1303.34-11.3L1303.34-11.3 1303.34-12.35 1298.34-11.55Q1295.39-11.1 1293.94-10.1 1292.49-9.1 1292.49-7.65L1292.49-7.65Q1292.49-6.55 1293.17-5.78 1293.84-5 1294.89-4.63 1295.94-4.25 1297.09-4.25ZM1336.29 0L1331.89 0Q1331.39 0 1331.04-0.35 1330.69-0.7 1330.69-1.2L1330.69-1.2 1330.69-24.8Q1330.69-25.3 1331.04-25.65 1331.39-26 1331.89-26L1331.89-26 1335.99-26Q1336.49-26 1336.84-25.65 1337.19-25.3 1337.19-24.8L1337.19-24.8 1337.19-22.75Q1338.49-24.35 1340.51-25.43 1342.54-26.5 1345.54-26.5L1345.54-26.5Q1348.59-26.5 1350.84-25.13 1353.09-23.75 1354.31-21.25 1355.54-18.75 1355.54-15.25L1355.54-15.25 1355.54-1.2Q1355.54-0.7 1355.19-0.35 1354.84 0 1354.34 0L1354.34 0 1349.94 0Q1349.44 0 1349.09-0.35 1348.74-0.7 1348.74-1.2L1348.74-1.2 1348.74-14.95Q1348.74-17.85 1347.31-19.5 1345.89-21.15 1343.19-21.15L1343.19-21.15Q1340.59-21.15 1339.04-19.5 1337.49-17.85 1337.49-14.95L1337.49-14.95 1337.49-1.2Q1337.49-0.7 1337.14-0.35 1336.79 0 1336.29 0L1336.29 0ZM1391.98 0L1387.93 0Q1384.93 0 1382.88-1.05 1380.83-2.1 1379.83-4.17 1378.83-6.25 1378.83-9.35L1378.83-9.35 1378.83-20.7 1374.88-20.7Q1374.38-20.7 1374.03-21.05 1373.68-21.4 1373.68-21.95L1373.68-21.95 1373.68-24.8Q1373.68-25.3 1374.03-25.65 1374.38-26 1374.88-26L1374.88-26 1378.83-26 1378.83-34.3Q1378.83-34.8 1379.16-35.15 1379.48-35.5 1380.03-35.5L1380.03-35.5 1384.08-35.5Q1384.58-35.5 1384.93-35.15 1385.28-34.8 1385.28-34.3L1385.28-34.3 1385.28-26 1391.53-26Q1392.03-26 1392.38-25.65 1392.73-25.3 1392.73-24.8L1392.73-24.8 1392.73-21.95Q1392.73-21.4 1392.38-21.05 1392.03-20.7 1391.53-20.7L1391.53-20.7 1385.28-20.7 1385.28-9.85Q1385.28-7.8 1386.01-6.65 1386.73-5.5 1388.53-5.5L1388.53-5.5 1391.98-5.5Q1392.48-5.5 1392.83-5.15 1393.18-4.8 1393.18-4.3L1393.18-4.3 1393.18-1.2Q1393.18-0.7 1392.83-0.35 1392.48 0 1391.98 0L1391.98 0ZM1421.78 0.5L1421.78 0.5Q1418.78 0.5 1416.65-0.2 1414.53-0.9 1413.18-1.95 1411.83-3 1411.18-4.05 1410.53-5.1 1410.48-5.8L1410.48-5.8Q1410.43-6.35 1410.8-6.68 1411.18-7 1411.63-7L1411.63-7 1415.58-7Q1415.78-7 1415.93-6.95 1416.08-6.9 1416.33-6.65L1416.33-6.65Q1416.98-6.1 1417.7-5.5 1418.43-4.9 1419.43-4.48 1420.43-4.05 1421.93-4.05L1421.93-4.05Q1423.88-4.05 1425.2-4.83 1426.53-5.6 1426.53-7.05L1426.53-7.05Q1426.53-8.1 1425.95-8.75 1425.38-9.4 1423.83-9.93 1422.28-10.45 1419.43-11.05L1419.43-11.05Q1416.63-11.7 1414.78-12.7 1412.93-13.7 1412.03-15.2 1411.13-16.7 1411.13-18.7L1411.13-18.7Q1411.13-20.65 1412.3-22.43 1413.48-24.2 1415.8-25.35 1418.13-26.5 1421.58-26.5L1421.58-26.5Q1424.28-26.5 1426.28-25.83 1428.28-25.15 1429.6-24.15 1430.93-23.15 1431.63-22.13 1432.33-21.1 1432.38-20.35L1432.38-20.35Q1432.43-19.8 1432.08-19.48 1431.73-19.15 1431.28-19.15L1431.28-19.15 1427.58-19.15Q1427.33-19.15 1427.13-19.25 1426.93-19.35 1426.73-19.5L1426.73-19.5Q1426.18-20 1425.53-20.58 1424.88-21.15 1423.95-21.55 1423.03-21.95 1421.53-21.95L1421.53-21.95Q1419.63-21.95 1418.63-21.13 1417.63-20.3 1417.63-19.05L1417.63-19.05Q1417.63-18.2 1418.1-17.57 1418.58-16.95 1420.03-16.4 1421.48-15.85 1424.43-15.25L1424.43-15.25Q1427.78-14.65 1429.75-13.48 1431.73-12.3 1432.55-10.78 1433.38-9.25 1433.38-7.4L1433.38-7.4Q1433.38-5.15 1432.05-3.35 1430.73-1.55 1428.15-0.53 1425.58 0.5 1421.78 0.5Z" opacity="1" transform="matrix(1,0,0,1,0,0)" fill="#ffffff" class="undefined-text-1" data-fill-palette-color="secondary" id="text-1"></path></svg></g></svg></g></svg></g></svg></g><g transform="matrix(1,0,0,1,108.22051976651015,0)"><svg viewBox="0 0 27.99032046697967 32.903687983206304" height="32.903687983206304" width="27.99032046697967"><g><svg version="1.0" xmlns="http://www.w3.org/2000/svg" xmlns:xlink="http://www.w3.org/1999/xlink" x="8" y="0" viewBox="0 0.27799999713897705 36.44034957885742 99.99915313720703" enable-background="new 0 0 36.439 100.277" xml:space="preserve" width="11.990320466979671" height="32.903687983206304" class="icon-icon-0" data-fill-palette-color="accent" id="icon-0"><path d="M26.47 95.631c-0.021 2.55 2.024 4.625 4.568 4.646 2.548 0.021 4.624-2.021 4.645-4.567l0.757-90.403c0.037-4.47-2.869-4.971-4.903-4.987-2.042-0.017-5.817 5.713-6.673 11C24 16.602 18.891 43.844 26.988 49.207L26.47 95.631 26.47 95.631 26.47 95.631z" fill="#ffffff" data-fill-palette-color="accent"></path><path d="M4.888 95.452L5.506 37.22C2.192 37.193 0.562 33.246 0 30.39L2.006 0.278 4.72 24.584 7.263 0.32l2.711 24.308 3.124-24.259 2.131 24.303 3.12-24.259 1.497 30.143c-0.602 2.846-2.064 6.766-5.386 6.739l-0.353 58.233c-0.021 2.548-2.106 4.59-4.649 4.568C6.914 100.075 4.868 98 4.888 95.452L4.888 95.452 4.888 95.452z" fill="#ffffff" data-fill-palette-color="accent"></path></svg></g></svg></g><g><rect width="108.22051976651015" height="1.1580417150597553" y="30.74564626814655" x="136.21084023348982" fill="#ffffff" data-fill-palette-color="accent"></rect><rect width="108.22051976651015" height="1.1580417150597553" y="30.74564626814655" x="0" fill="#ffffff" data-fill-palette-color="accent"></rect><rect width="108.22051976651015" height="1.1580417150597553" y="28.42956283802704" x="136.21084023348982" fill="#ffffff" data-fill-palette-color="accent"></rect><rect width="108.22051976651015" height="1.1580417150597553" y="28.42956283802704" x="0" fill="#ffffff" data-fill-palette-color="accent"></rect></g></svg></g></svg></g><path d="M0 87.728L0 1 244.431 1 244.431 87.728 243.273 87.728 243.273 2.158 1.158 2.158 1.158 87.728 0 87.728M0 159.472L0 246.2 244.431 246.2 244.431 159.472 243.273 159.472 243.273 245.042 1.158 245.042 1.158 159.472 0 159.472" fill="#ffffff" stroke="transparent" data-fill-palette-color="primary"></path></svg></g><defs></defs></svg><rect width="244.43135999999998" height="247.2" fill="none" stroke="none" visibility="hidden"></rect></g></svg></g></svg>